<svg xmlns="http://www.w3.org/2000/svg" viewBox="0 0 80 80"><path fill="#ed163a" d="M 14 10 L 14 14 L 16 14 L 16 12 L 64 12 L 64 14 L 66 14 L 66 10 L 14 10 z M 10 16 L 10 20 L 12 20 L 12 18 L 68 18 L 68 20 L 70 20 L 70 16 L 10 16 z M 6 22 L 6 23 L 6 69 L 74 69 L 74 22 L 6 22 z M 8 24 L 72 24 L 72 67 L 8 67 L 8 24 z M 12 28 A 1 1 0 0 0 12 30 A 1 1 0 0 0 12 28 z M 16 28 A 1 1 0 0 0 16 30 A 1 1 0 0 0 16 28 z M 20 28 A 1 1 0 0 0 20 30 A 1 1 0 0 0 20 28 z M 24 28 A 1 1 0 0 0 24 30 A 1 1 0 0 0 24 28 z M 28 28 A 1 1 0 0 0 28 30 A 1 1 0 0 0 28 28 z M 32 28 A 1 1 0 0 0 32 30 A 1 1 0 0 0 32 28 z M 36 28 A 1 1 0 0 0 36 30 A 1 1 0 0 0 36 28 z M 40 28 A 1 1 0 0 0 40 30 A 1 1 0 0 0 40 28 z M 44 28 A 1 1 0 0 0 44 30 A 1 1 0 0 0 44 28 z M 48 28 A 1 1 0 0 0 48 30 A 1 1 0 0 0 48 28 z M 52 28 A 1 1 0 0 0 52 30 A 1 1 0 0 0 52 28 z M 56 28 A 1 1 0 0 0 56 30 A 1 1 0 0 0 56 28 z M 60 28 A 1 1 0 0 0 60 30 A 1 1 0 0 0 60 28 z M 64 28 A 1 1 0 0 0 64 30 A 1 1 0 0 0 64 28 z M 68 28 A 1 1 0 0 0 68 30 A 1 1 0 0 0 68 28 z M 12 61 A 1 1 0 0 0 12 63 A 1 1 0 0 0 12 61 z M 16 61 A 1 1 0 0 0 16 63 A 1 1 0 0 0 16 61 z M 20 61 A 1 1 0 0 0 20 63 A 1 1 0 0 0 20 61 z M 24 61 A 1 1 0 0 0 24 63 A 1 1 0 0 0 24 61 z M 28 61 A 1 1 0 0 0 28 63 A 1 1 0 0 0 28 61 z M 32 61 A 1 1 0 0 0 32 63 A 1 1 0 0 0 32 61 z M 36 61 A 1 1 0 0 0 36 63 A 1 1 0 0 0 36 61 z M 40 61 A 1 1 0 0 0 40 63 A 1 1 0 0 0 40 61 z M 44 61 A 1 1 0 0 0 44 63 A 1 1 0 0 0 44 61 z M 48 61 A 1 1 0 0 0 48 63 A 1 1 0 0 0 48 61 z M 52 61 A 1 1 0 0 0 52 63 A 1 1 0 0 0 52 61 z M 56 61 A 1 1 0 0 0 56 63 A 1 1 0 0 0 56 61 z M 60 61 A 1 1 0 0 0 60 63 A 1 1 0 0 0 60 61 z M 64 61 A 1 1 0 0 0 64 63 A 1 1 0 0 0 64 61 z M 68 61 A 1 1 0 0 0 68 63 A 1 1 0 0 0 68 61 z"></path></svg>
